<svg width="56" height="56" viewBox="0 0 56 56" fill="none" xmlns="http://www.w3.org/2000/svg">
<g clip-path="url(#clip0_2489_53845)">
<path d="M12.133 56H43.8663C44.609 56 45.3211 55.705 45.8462 55.1799C46.3713 54.6548 46.6663 53.9426 46.6663 53.2V47.6C46.6682 44.3822 45.6276 41.2504 43.7002 38.6736C44.4942 37.541 45.1368 36.3094 45.6117 35.0103L45.6229 34.9776C46.3248 33.0402 46.6781 30.9939 46.6663 28.9333C46.5758 26.4225 45.9512 23.9598 44.8342 21.7093C43.6494 19.3077 43.0007 16.6772 42.933 14V10.472C43.3557 10.0952 43.6536 9.59867 43.7873 9.04845C43.921 8.49823 43.8841 7.92035 43.6815 7.3916C43.479 6.86285 43.1203 6.40827 42.6531 6.08825C42.186 5.76824 41.6326 5.59794 41.0663 5.6H40.6379C38.3317 2.18493 33.4475 0 27.9997 0C22.5518 0 17.6649 2.184 15.3614 5.6H14.933C14.2733 5.59875 13.6344 5.83102 13.1296 6.25567C12.6247 6.68031 12.2864 7.26994 12.1746 7.9201C12.0629 8.57027 12.1848 9.23902 12.5188 9.8079C12.8528 10.3768 13.3774 10.8091 13.9997 11.0283V14C13.932 16.6772 13.2833 19.3077 12.0985 21.7093C10.9814 23.9598 10.3569 26.4225 10.2663 28.9333C10.2554 30.9938 10.6087 33.04 11.3098 34.9776C11.3154 34.9925 11.3219 35.0065 11.3275 35.0215C11.7141 36.0782 12.2105 37.0915 12.8087 38.0445C10.5645 40.723 9.33411 44.1056 9.33301 47.6V53.2C9.33301 53.9426 9.62801 54.6548 10.1531 55.1799C10.6782 55.705 11.3904 56 12.133 56ZM33.5222 32.7759C33.2889 32.7549 33.0718 32.6476 32.9135 32.475C32.7552 32.3023 32.667 32.0768 32.6663 31.8425V30.8504C33.4315 30.5567 34.1677 30.1924 34.8653 29.7621C34.9935 29.7141 35.1093 29.6379 35.2041 29.5391C37.189 28.2279 38.7791 26.4006 39.8035 24.2536C39.9986 24.5672 40.1881 24.8668 40.3635 25.1449L40.7126 25.6965C42.4176 28.3775 43.4682 31.4218 43.7795 34.5837C43.4253 35.5038 42.9748 36.3838 42.4355 37.2092C40.0628 34.7502 36.9148 33.1845 33.5222 32.7759ZM27.9997 29.8667C26.8603 29.8673 25.7274 29.6952 24.6397 29.3561L24.6182 29.3487C23.8455 29.1079 23.1015 28.783 22.3997 28.3799V27.0667C22.3997 26.0765 22.793 25.1269 23.4931 24.4268C24.1933 23.7267 25.1429 23.3333 26.133 23.3333H29.8663C30.8565 23.3333 31.8061 23.7267 32.5062 24.4268C33.2063 25.1269 33.5997 26.0765 33.5997 27.0667V28.3416C31.9006 29.3359 29.9683 29.8621 27.9997 29.8667ZM14.1313 36.6408C13.7493 35.9905 13.4207 35.3104 13.1485 34.6071C13.4574 31.437 14.5091 28.3843 16.2182 25.6965L16.5673 25.1449L16.613 25.0731C18.1 27.7388 20.4796 29.7945 23.333 30.8784V31.8453C23.3323 32.0799 23.2439 32.3057 23.0852 32.4784C22.9265 32.6511 22.7089 32.7582 22.4753 32.7787C19.3554 33.1507 16.4339 34.503 14.1313 36.6408ZM20.4303 15.8667H36.5023C36.8367 18.0802 37.5523 20.219 38.6173 22.1881C38.007 24.0394 36.9203 25.6975 35.4663 26.9957C35.4477 25.5228 34.8495 24.1166 33.8013 23.0817C32.7531 22.0468 31.3393 21.4665 29.8663 21.4667H26.133C24.6553 21.4678 23.2378 22.0526 22.189 23.0937C21.1402 24.1348 20.5451 25.5479 20.533 27.0256C19.3469 25.9617 18.4013 24.6571 17.7591 23.1989C19.1183 20.952 20.0256 18.4613 20.4303 15.8667ZM27.9997 1.86667C32.1605 1.86667 36.0263 3.32173 38.2374 5.6H17.761C19.973 3.3208 23.8342 1.86667 27.9997 1.86667ZM14.933 7.46667H41.0663C41.3139 7.46667 41.5513 7.565 41.7263 7.74003C41.9013 7.91507 41.9997 8.15246 41.9997 8.4C41.9997 8.64754 41.9013 8.88493 41.7263 9.05997C41.5513 9.235 41.3139 9.33333 41.0663 9.33333H14.933C14.6855 9.33333 14.4481 9.235 14.273 9.05997C14.098 8.88493 13.9997 8.64754 13.9997 8.4C13.9997 8.15246 14.098 7.91507 14.273 7.74003C14.4481 7.565 14.6855 7.46667 14.933 7.46667ZM13.8186 22.4355C15.1093 19.807 15.8083 16.9277 15.8663 14V11.2H41.0663V14C41.1244 16.9277 41.8234 19.807 43.1141 22.4355C44.1306 24.4573 44.7052 26.6723 44.7997 28.9333C44.7997 29.3067 44.7726 29.6641 44.7493 30.0216C44.1622 28.1505 43.3372 26.3625 42.2946 24.7016L41.9409 24.1416C40.1805 21.6578 38.9736 18.8251 38.4017 15.8349C38.6207 15.8054 38.8219 15.6981 38.9684 15.5325C39.1149 15.367 39.197 15.1544 39.1997 14.9333C39.1997 14.6858 39.1013 14.4484 38.9263 14.2734C38.7513 14.0983 38.5139 14 38.2663 14H18.6663C18.4188 14 18.1814 14.0983 18.0064 14.2734C17.8313 14.4484 17.733 14.6858 17.733 14.9333C17.7346 15.1552 17.8162 15.369 17.9628 15.5355C18.1094 15.7019 18.3112 15.8099 18.531 15.8396C17.959 18.8298 16.7521 21.6624 14.9918 24.1463L14.6381 24.7063C13.5884 26.378 12.7593 28.1784 12.1713 30.0627C12.1479 29.6893 12.133 29.316 12.133 28.9361C12.2271 26.6742 12.8017 24.4582 13.8186 22.4355ZM11.1997 47.6C11.1993 44.4063 12.3687 41.323 14.4867 38.9327C16.6048 36.5424 19.525 35.0106 22.6955 34.6267C23.3809 34.5495 24.0141 34.2239 24.4756 33.7114C24.937 33.1988 25.1946 32.535 25.1997 31.8453V31.43C25.8146 31.5642 26.4385 31.6541 27.0663 31.6988V43.8667C27.0663 44.1142 27.1647 44.3516 27.3397 44.5266C27.5147 44.7017 27.7521 44.8 27.9997 44.8C28.2472 44.8 28.4846 44.7017 28.6596 44.5266C28.8347 44.3516 28.933 44.1142 28.933 43.8667V31.6941C29.5612 31.6465 30.1851 31.5529 30.7997 31.4141V31.8435C30.8042 32.5331 31.0613 33.1972 31.5224 33.7101C31.9836 34.223 32.6166 34.5491 33.3019 34.6267C36.4728 35.0102 39.3935 36.5418 41.5119 38.9322C43.6304 41.3225 44.8 44.406 44.7997 47.6V53.2C44.7997 53.4475 44.7013 53.6849 44.5263 53.86C44.3513 54.035 44.1139 54.1333 43.8663 54.1333H39.1997V47.6C39.1997 47.3525 39.1013 47.1151 38.9263 46.94C38.7513 46.765 38.5139 46.6667 38.2663 46.6667C38.0188 46.6667 37.7814 46.765 37.6064 46.94C37.4313 47.1151 37.333 47.3525 37.333 47.6V54.1333H18.6663V47.6C18.6663 47.3525 18.568 47.1151 18.393 46.94C18.2179 46.765 17.9805 46.6667 17.733 46.6667C17.4855 46.6667 17.2481 46.765 17.073 46.94C16.898 47.1151 16.7997 47.3525 16.7997 47.6V54.1333H12.133C11.8855 54.1333 11.6481 54.035 11.473 53.86C11.298 53.6849 11.1997 53.4475 11.1997 53.2V47.6Z" fill="#8B8B8B"/>
<path d="M29.1684 25.5134C29.039 25.7036 28.8651 25.8593 28.6617 25.9668C28.4584 26.0744 28.2318 26.1307 28.0018 26.1307C27.7717 26.1307 27.5452 26.0744 27.3418 25.9668C27.1385 25.8593 26.9645 25.7036 26.8351 25.5134C26.6708 25.3278 26.4394 25.215 26.1919 25.2C25.9444 25.1849 25.701 25.2688 25.5154 25.4332C25.3297 25.5975 25.217 25.8289 25.2019 26.0764C25.1869 26.3239 25.2708 26.5672 25.4351 26.7529C25.7402 27.1421 26.1298 27.4569 26.5745 27.6734C27.0191 27.8898 27.5072 28.0023 28.0018 28.0023C28.4963 28.0023 28.9844 27.8898 29.4291 27.6734C29.8738 27.4569 30.2634 27.1421 30.5684 26.7529C30.6498 26.661 30.7123 26.5539 30.7523 26.4378C30.7923 26.3218 30.8091 26.199 30.8016 26.0764C30.7942 25.9539 30.7627 25.834 30.7089 25.7236C30.6551 25.6132 30.5801 25.5145 30.4882 25.4332C30.3963 25.3518 30.2892 25.2893 30.1731 25.2493C30.0571 25.2093 29.9342 25.1925 29.8117 25.2C29.6891 25.2074 29.5693 25.2389 29.4589 25.2927C29.3485 25.3465 29.2498 25.4215 29.1684 25.5134Z" fill="#8B8B8B"/>
</g>
<defs>
<clipPath id="clip0_2489_53845">
<rect width="56" height="56" fill="white"/>
</clipPath>
</defs>
</svg>
