<svg width="46" height="56" viewBox="0 0 46 56" fill="none" xmlns="http://www.w3.org/2000/svg">
<path d="M3.39961 56H42.5996C43.3422 56 44.0544 55.705 44.5795 55.1799C45.1046 54.6548 45.3996 53.9426 45.3996 53.2V43.8667C45.4004 41.852 44.8077 39.8817 43.6956 38.2017C42.5835 36.5218 41.0012 35.2066 39.1463 34.4204C38.2594 34.0692 37.4949 33.4657 36.9475 32.6846C36.4 31.9034 36.0937 30.9788 36.0663 30.0253V13.0667C36.0663 9.60117 34.6896 6.27761 32.2391 3.82714C29.7887 1.37666 26.4651 0 22.9996 0C19.5341 0 16.2106 1.37666 13.7601 3.82714C11.3096 6.27761 9.93294 9.60117 9.93294 13.0667V30.0216C9.90635 30.9759 9.60035 31.9014 9.05288 32.6834C8.5054 33.4655 7.7405 34.0698 6.85294 34.4213C4.99807 35.2074 3.41581 36.5224 2.3037 38.2022C1.19159 39.882 0.598898 41.8521 0.59961 43.8667V53.2C0.59961 53.9426 0.894609 54.6548 1.41971 55.1799C1.94481 55.705 2.657 56 3.39961 56ZM18.6848 29.9385C16.6432 29.0896 14.8993 27.6541 13.6737 25.8138C12.4481 23.9735 11.7959 21.8111 11.7996 19.6V13.0667C11.7996 10.0962 12.9796 7.24748 15.08 5.14707C17.1804 3.04666 20.0292 1.86667 22.9996 1.86667C25.97 1.86667 28.8188 3.04666 30.9192 5.14707C33.0196 7.24748 34.1996 10.0962 34.1996 13.0667V19.6C34.2048 22.4912 33.0868 25.2714 31.0813 27.3541C30.9203 27.5343 30.8355 27.77 30.8447 28.0115C30.8539 28.2529 30.9564 28.4814 31.1306 28.6489C31.3048 28.8164 31.5372 28.9097 31.7789 28.9093C32.0205 28.9089 32.2526 28.8148 32.4263 28.6468C33.1025 27.9376 33.6973 27.1549 34.1996 26.3135V29.6268C32.3049 33.1791 27.9397 35.4667 22.9996 35.4667C18.0595 35.4667 13.6952 33.1791 11.7996 29.6259V26.3293C13.2325 28.7197 15.3932 30.5883 17.9652 31.6615C18.079 31.7091 18.2012 31.7336 18.3245 31.7333C18.5404 31.7336 18.7497 31.659 18.9167 31.5223C19.0838 31.3857 19.1983 31.1953 19.2407 30.9837C19.2832 30.7721 19.251 30.5523 19.1497 30.3617C19.0483 30.1711 18.884 30.0216 18.6848 29.9385ZM7.57814 36.1396C8.43254 35.7837 9.20678 35.2599 9.85497 34.5992C10.5032 33.9385 11.0121 33.1544 11.3516 32.2933C12.8084 33.9317 14.6058 35.2317 16.6179 36.1023C18.63 36.9729 20.8081 37.393 22.9996 37.3333C25.191 37.393 27.369 36.9729 29.3809 36.1023C31.3928 35.2316 33.1901 33.9316 34.6467 32.2933C34.9858 33.1542 35.4943 33.9382 36.142 34.5989C36.7897 35.2595 37.5634 35.7835 38.4173 36.1396C38.8557 36.3297 39.2769 36.557 39.6764 36.8191C37.5468 37.3479 35.5948 38.4304 34.0185 39.9569C32.2181 41.7396 28.8451 43.8667 22.9996 43.8667C17.1541 43.8667 13.782 41.7396 11.9769 39.9523C10.4016 38.4277 8.45136 37.3465 6.32374 36.8181C6.72272 36.5566 7.14332 36.3296 7.58094 36.1396H7.57814ZM2.46628 43.8667C2.46702 41.8491 3.19616 39.8996 4.51961 38.3768C6.82874 38.6533 8.98561 39.6723 10.6656 41.2804C12.7161 43.3123 16.5195 45.7333 22.9996 45.7333C29.4797 45.7333 33.2831 43.3123 35.3289 41.2841C37.0097 39.6737 39.1684 38.6533 41.4796 38.3768C42.8034 39.8994 43.5326 41.849 43.5329 43.8667V53.2C43.5329 53.4475 43.4346 53.6849 43.2596 53.86C43.0845 54.035 42.8471 54.1333 42.5996 54.1333H37.9329V46.6667C37.9329 46.4191 37.8346 46.1817 37.6596 46.0067C37.4845 45.8317 37.2471 45.7333 36.9996 45.7333C36.7521 45.7333 36.5147 45.8317 36.3396 46.0067C36.1646 46.1817 36.0663 46.4191 36.0663 46.6667V54.1333H9.93294V46.6667C9.93294 46.4191 9.83461 46.1817 9.65958 46.0067C9.48454 45.8317 9.24715 45.7333 8.99961 45.7333C8.75208 45.7333 8.51468 45.8317 8.33964 46.0067C8.16461 46.1817 8.06628 46.4191 8.06628 46.6667V54.1333H3.39961C3.15207 54.1333 2.91468 54.035 2.73964 53.86C2.56461 53.6849 2.46628 53.4475 2.46628 53.2V43.8667Z" fill="#FF595A"/>
</svg>
